# xmcd
#
# Track frame offsets:
#	150
#	12572
#	24652
#	35354
#	45090
#	58240
#	66481
#	78562
#	89258
#	101820
#	111826
#	123569
#	134529
#	145654
#	156580
#	170569
#	180237
#	192578
#	202779
#	214283
#	231020
#	241541
#	253105
#
# Disc length: 3555 seconds
#
# Revision: 1
# Processed by: cddbd v1.5.1PL0 Copyright (c) Steve Scherf et al.
# Submitted via: EasyCDDAExtractor 7.0.6.1
#
DISCID=490de117
DTITLE=Rick And Thel Carey
DYEAR=1900
DGENRE=Country
TTITLE0=Star Of Love
TTITLE1=Honky Tonk Girl
TTITLE2=I'll Take The Dog
TTITLE3=Why Don't You Love Me
TTITLE4=The Deepening Snow
TTITLE5=Family Man
TTITLE6=I Bet I Know Just What You're Gonna Say
TTITLE7=Close Together As You And me
TTITLE8=Flowers For Momma
TTITLE9=The Writing On The Wall
TTITLE10=Less Of Me
TTITLE11=Party Pickin'
TTITLE12=You're A Millionaire
TTITLE13=Fast Train To Sydney
TTITLE14=The Hands You're Holding Now
TTITLE15=Big City
TTITLE16=Four Seasons Of Our Love
TTITLE17=Blue Sunday
TTITLE18=When I See The Southern Cross
TTITLE19=For Sale
TTITLE20=The Hands Behind The Hands
TTITLE21=God Bless This Old Bomb
TTITLE22=Will You Love Me When Its over
EXTD=
EXTT0=
EXTT1=
EXTT2=
EXTT3=
EXTT4=
EXTT5=
EXTT6=
EXTT7=
EXTT8=
EXTT9=
EXTT10=
EXTT11=
EXTT12=
EXTT13=
EXTT14=
EXTT15=
EXTT16=
EXTT17=
EXTT18=
EXTT19=
EXTT20=
EXTT21=
EXTT22=
PLAYORDER=
